<?xml version="1.0" encoding="utf-8"?>
<!-- Generator: Adobe Illustrator 25.2.0, SVG Export Plug-In . SVG Version: 6.00 Build 0)  -->
<svg version="1.1" id="Layer_1" xmlns="http://www.w3.org/2000/svg" xmlns:xlink="http://www.w3.org/1999/xlink" x="0px" y="0px"
	 viewBox="0 0 185.1 293.4" style="enable-background:new 0 0 185.1 293.4;" xml:space="preserve">
<style type="text/css">
	.st0{fill:#FFFFFF;}
</style>
<g>
	<path class="st0" d="M177.6,85h-28.3c-0.5,0-1,0.1-1.5,0.2c-3.4,0.7-6,3.7-6,7.4c0,3.7-0.4,7.5-1.3,11.1c-0.2,0.7-0.4,1.4-0.5,2.1
		c-1.9,7-5.5,13.5-10.2,19c-0.5,0.6-1.1,1.2-1.6,1.8c-0.6,0.6-1.1,1.2-1.7,1.7c-0.5,0.5-1.1,1-1.7,1.6c-0.6,0.5-1.2,1-1.8,1.5
		l-0.1,0.1c-0.3,0.2-0.6,0.5-0.9,0.7l-0.2,0.1c-0.4,0.3-0.9,0.7-1.5,1.1L119,134c-0.7,0.4-1.4,0.8-2,1.2c-1.4,0.8-2.8,1.5-4.3,2.2
		c-0.7,0.3-1.4,0.6-2.2,0.9c-2.6,1-5.4,1.8-8.1,2.4c-0.8,0.2-1.6,0.3-2.4,0.4c-3.2,0.5-6.5,0.7-9.8,0.5l-0.3,0
		c-5.6-0.3-11-1.6-16-3.6c-0.2-0.1-0.4-0.2-0.6-0.3c-0.6-0.3-1.2-0.5-1.8-0.8c-0.2-0.1-0.4-0.2-0.6-0.3c-16.3-8-27.5-24.8-27.5-44.2
		c0-2.4,0.2-4.8,0.5-7.2c0-0.1,0-0.1,0-0.2c0.1-0.7,0.2-1.4,0.4-2.1c0-0.2,0.1-0.3,0.1-0.5c0.6-3,1.5-5.9,2.7-8.8
		c0-0.1,0.1-0.1,0.1-0.2c0.3-0.7,0.6-1.3,0.9-2c0,0,0-0.1,0-0.1c2.4-5,5.6-9.7,9.7-13.7c2.9-2.9,6.1-5.4,9.5-7.4c0,0,0,0,0,0
		c0.6-0.4,1.3-0.8,2-1.1c0.1-0.1,0.3-0.2,0.4-0.2c0.5-0.2,0.9-0.5,1.4-0.7c0.3-0.1,0.5-0.2,0.8-0.4c0.6-0.3,1.1-0.5,1.7-0.8
		c0.1,0,0.1-0.1,0.2-0.1c0.5-0.2,1-0.4,1.5-0.6c0.3-0.1,0.6-0.2,1-0.4c0.4-0.1,0.8-0.3,1.3-0.4c0.4-0.1,0.7-0.2,1.1-0.3
		c0.6-0.2,1.2-0.3,1.7-0.5c0.1,0,0.3-0.1,0.4-0.1c0.3-0.1,0.5-0.1,0.8-0.2c0.6-0.1,1.3-0.3,2-0.4c0.3-0.1,0.6-0.1,1-0.2
		c0.5-0.1,1.1-0.2,1.6-0.2c0.4,0,0.8-0.1,1.1-0.1c0.5-0.1,1-0.1,1.5-0.1c0.4,0,0.8-0.1,1.2-0.1c0.7,0,1.4-0.1,2-0.1
		c0.2,0,0.4,0,0.6,0c0,0,0,0,0,0c2,0,3.9-0.8,5.3-2.2c1.4-1.4,2.2-3.3,2.2-5.3V7.5c0-4.1-3.4-7.5-7.5-7.5C42,0,0.7,40.9,0.1,91.4
		C0,91.8,0,92.1,0,92.5C0,175.9,54.4,251,77.6,283c1,1.3,1.9,2.6,2.7,3.7c3,4.2,7.5,6.6,12.2,6.6c4.7,0,9.2-2.4,12.2-6.6
		c0.8-1.1,1.7-2.4,2.6-3.7c23.2-32.1,77.7-107.2,77.7-190.6C185.1,88.4,181.7,85,177.6,85z M85.1,15.4v13.4c-0.1,0-0.1,0-0.2,0
		c-1.1,0.1-2.1,0.3-3.2,0.5c-0.2,0-0.5,0.1-0.7,0.1c-1.1,0.2-2.1,0.4-3.2,0.7c0,0,0,0,0,0c0,0,0,0,0,0c-0.9,0.2-1.8,0.4-2.7,0.7
		c-0.1,0-0.1,0-0.2,0c0,0,0,0,0,0c-2,0.6-3.9,1.2-5.8,2c0,0-0.1,0-0.1,0c-0.5,0.2-1,0.4-1.4,0.6c-0.4,0.2-0.9,0.4-1.3,0.6
		c0,0-0.1,0-0.1,0.1c-0.1,0-0.1,0.1-0.2,0.1c-0.6,0.3-1.2,0.6-1.9,0.9c-0.1,0.1-0.2,0.1-0.3,0.2c-0.6,0.3-1.2,0.6-1.8,0.9
		c-0.2,0.1-0.4,0.2-0.6,0.4c-0.6,0.3-1.2,0.6-1.7,1c-0.6,0.4-1.3,0.8-1.9,1.2c-0.1,0.1-0.2,0.1-0.3,0.2c-0.7,0.4-1.3,0.9-2,1.4
		c0,0-0.1,0-0.1,0.1c-1.7,1.2-3.3,2.5-4.9,3.8l-0.1,0.1c-0.7,0.6-1.4,1.3-2.2,2c-0.7,0.7-1.5,1.4-2.2,2.2c-0.7,0.7-1.4,1.5-2.1,2.3
		c-1.7,2-3.3,4.1-4.8,6.3c-0.1,0.1-0.1,0.2-0.2,0.2c-0.5,0.8-1,1.5-1.5,2.3c-0.1,0.1-0.1,0.2-0.2,0.3c-0.5,0.8-1,1.7-1.4,2.5
		c-0.1,0.2-0.2,0.4-0.3,0.6c-0.3,0.6-0.6,1.3-1,1.9c-0.1,0.3-0.3,0.6-0.4,0.9c-0.1,0.2-0.2,0.4-0.3,0.6c-0.3,0.6-0.5,1.2-0.8,1.8
		c0,0,0,0,0,0.1c-0.1,0.3-0.3,0.7-0.4,1c-0.2,0.4-0.3,0.9-0.5,1.3c-0.1,0.3-0.2,0.6-0.3,0.9c-0.3,0.7-0.5,1.4-0.7,2.2
		c-0.1,0.2-0.2,0.5-0.2,0.7c-0.1,0.3-0.2,0.6-0.3,0.9c-0.3,1-0.5,1.9-0.7,2.8c-0.1,0.4-0.2,0.9-0.3,1.3c-0.1,0.5-0.2,0.9-0.3,1.4
		c-0.1,0.7-0.3,1.5-0.4,2.2c0,0.3-0.1,0.6-0.1,0.9c-0.1,0.9-0.2,1.7-0.3,2.6c0,0.1,0,0.1,0,0.2c-0.2,2.1-0.3,4.2-0.3,6.2
		c0,0.9,0,1.9,0.1,2.9v0.3c0,0.9,0.1,1.7,0.1,2.4l0,0.3l0.2,1c0.1,0.8,0.2,1.6,0.3,2.4l0.1,0.8c0.1,0.4,0.1,0.8,0.2,1.2l0.1,0.3
		c0.1,0.3,0.1,0.6,0.2,0.9c0.1,0.4,0.2,1,0.3,1.4l0.1,0.3c0.1,0.3,0.1,0.7,0.2,0.9l0.4,1.5c6.3,23.4,24.9,41.1,48.5,46.3l1.3,0.3
		l2.7,0.5c0.5,0.1,1,0.2,1.6,0.2l0.3,0c0.3,0,0.5,0.1,0.8,0.1c0.7,0.1,1.3,0.1,2,0.2l0.9,0.1l1.1,0c0.2,0,0.5,0,0.7,0
		c0.7,0,1.4,0.1,2.1,0.1c0,0,0,0,0,0c0.5,0,1,0,1.5,0c0.4,0,0.7,0,1.1,0c0.6,0,1.2-0.1,1.8-0.1c0.3,0,0.6,0,0.8-0.1
		c0.7-0.1,1.3-0.1,2-0.2c0.1,0,0.2,0,0.3,0c14.3-1.7,27.5-8,37.8-18.3c10.3-10.3,16.7-23.6,18.4-37.9h13.4
		c-3.8,39.2-36.9,70-77.1,70c-42.7,0-77.5-34.8-77.5-77.5C15.1,52.3,45.9,19.2,85.1,15.4z M95.3,274.3c-1,1.3-1.8,2.5-2.7,3.7
		c0,0,0,0-0.1,0.1c0,0,0,0-0.1-0.1c-0.8-1.2-1.8-2.4-2.7-3.8C73.6,252,42,208.2,25.5,156.1C42.4,173.9,66.2,185,92.6,185
		c26.3,0,50.1-11.1,67-28.8C143.1,208.3,111.4,252.1,95.3,274.3z"/>
	<path class="st0" d="M56.7,92.5c0,19.8,16.1,35.8,35.8,35.8c19.8,0,35.8-16.1,35.8-35.8s-16.1-35.8-35.8-35.8
		C72.8,56.7,56.7,72.8,56.7,92.5z M113.4,92.5c0,11.5-9.3,20.8-20.8,20.8S71.7,104,71.7,92.5S81,71.7,92.5,71.7S113.4,81,113.4,92.5
		z"/>
</g>
</svg>
