<?xml version="1.0" encoding="utf-8"?>
<!-- Generator: Adobe Illustrator 25.2.0, SVG Export Plug-In . SVG Version: 6.00 Build 0)  -->
<svg version="1.1" id="Layer_1" xmlns="http://www.w3.org/2000/svg" xmlns:xlink="http://www.w3.org/1999/xlink" x="0px" y="0px"
	 viewBox="0 0 687 311" style="enable-background:new 0 0 687 311;" xml:space="preserve">
<style type="text/css">
	.st0{fill:#FFFFFF;}
	.st1{enable-background:new    ;}
</style>
<g id="Layer_2_1_">
	<g id="Layer_1-2">
		<path class="st0" d="M181.7,96.6h-27.6c-0.5,0-1,0.1-1.5,0.2c-3.3,0.7-5.9,3.6-5.9,7.2s-0.4,7.3-1.2,10.8
			c-0.2,0.7-0.3,1.4-0.5,2.1c-1.9,6.8-5.3,13.2-9.9,18.4c-0.5,0.6-1,1.2-1.6,1.7c-0.5,0.6-1.1,1.1-1.7,1.7c-0.5,0.5-1.1,1-1.7,1.5
			c-0.6,0.5-1.2,1-1.8,1.5c-0.3,0.2-0.6,0.5-0.9,0.7l-0.2,0.1c-0.4,0.3-0.9,0.7-1.5,1l-1.2,0.8c-0.7,0.4-1.3,0.8-2,1.2
			c-1.3,0.8-2.7,1.5-4.1,2.1c-0.7,0.3-1.4,0.6-2.1,0.9c-2.6,1-5.2,1.8-7.9,2.4c-0.8,0.2-1.6,0.3-2.3,0.4c-3.2,0.5-6.4,0.7-9.6,0.5
			h-0.3c-5.5-0.3-10.8-1.5-15.6-3.5c-0.2-0.1-0.4-0.2-0.6-0.2c-0.6-0.3-1.2-0.5-1.8-0.8c-0.2-0.1-0.3-0.2-0.5-0.2
			c-15.9-7.8-26.8-24.2-26.8-43c0-2.4,0.2-4.7,0.5-7c0-0.1,0-0.1,0-0.2c0.1-0.7,0.2-1.4,0.4-2.1c0-0.2,0.1-0.3,0.1-0.5
			c0.6-2.9,1.5-5.8,2.6-8.5c0-0.1,0.1-0.1,0.1-0.2c0.3-0.7,0.6-1.3,0.9-1.9v-0.1C57.9,78.5,61.1,74,65,70c2.8-2.8,5.9-5.3,9.3-7.3
			l0,0c0.6-0.4,1.3-0.7,1.9-1.1c0.1-0.1,0.3-0.2,0.4-0.2c0.5-0.2,0.9-0.5,1.4-0.7c0.2-0.1,0.5-0.2,0.7-0.4c0.6-0.3,1.1-0.5,1.7-0.7
			c0.1,0,0.1-0.1,0.2-0.1c0.5-0.2,1-0.4,1.4-0.6c0.3-0.1,0.6-0.2,0.9-0.3c0.4-0.1,0.8-0.3,1.2-0.4c0.3-0.1,0.7-0.2,1-0.3
			c0.6-0.2,1.1-0.3,1.7-0.5c0.1,0,0.3-0.1,0.4-0.1c0.2-0.1,0.5-0.1,0.8-0.2c0.6-0.1,1.3-0.3,1.9-0.4c0.3-0.1,0.6-0.1,0.9-0.2
			c0.5-0.1,1-0.2,1.6-0.2c0.4,0,0.7-0.1,1.1-0.1c0.5-0.1,1-0.1,1.4-0.1s0.8-0.1,1.2-0.1c0.7,0,1.3-0.1,2-0.1c0.2,0,0.4,0,0.6,0l0,0
			c1.9,0,3.8-0.8,5.2-2.1c1.4-1.4,2.1-3.2,2.1-5.2V21.1c0-4-3.3-7.3-7.3-7.3c-49.3,0-89.5,39.8-90.1,89c-0.1,0.4-0.1,0.7-0.1,1.1
			c0,81.2,53,154.4,75.6,185.6c0.9,1.3,1.8,2.5,2.6,3.6c3,4.1,7.3,6.5,11.9,6.5l0,0c4.6,0,9-2.4,11.9-6.5c0.8-1.1,1.7-2.3,2.6-3.6
			c22.6-31.3,75.7-104.5,75.7-185.7C189.1,99.9,185.8,96.6,181.7,96.6z M91.6,28.8v13c-0.1,0-0.1,0-0.2,0c-1,0.1-2.1,0.3-3.1,0.5
			c-0.2,0-0.5,0.1-0.7,0.1c-1,0.2-2.1,0.4-3.1,0.6l0,0l0,0c-0.9,0.2-1.7,0.4-2.6,0.7c-0.1,0-0.1,0-0.1,0l0,0
			c-1.9,0.5-3.8,1.2-5.7,1.9H76c-0.5,0.2-0.9,0.4-1.4,0.6c-0.4,0.2-0.8,0.4-1.2,0.5c0,0-0.1,0-0.1,0.1C73.1,46.9,73,47,73,47
			c-0.6,0.3-1.2,0.6-1.8,0.9c-0.2,0-0.3,0.1-0.4,0.1c-0.6,0.3-1.2,0.6-1.7,0.9c-0.2,0.1-0.4,0.2-0.6,0.4c-0.6,0.3-1.1,0.6-1.7,1
			S65.6,51,65,51.4c-0.1,0.1-0.2,0.1-0.2,0.2c-0.7,0.4-1.3,0.9-1.9,1.3c0,0-0.1,0-0.1,0.1c-1.6,1.2-3.2,2.4-4.8,3.7l-0.1,0.1
			c-0.7,0.6-1.4,1.2-2.1,1.9c-0.7,0.7-1.4,1.4-2.1,2.1c-0.7,0.7-1.3,1.4-2,2.2c-1.7,2-3.3,4-4.7,6.2c-0.1,0.1-0.1,0.2-0.2,0.2
			c-0.5,0.7-1,1.5-1.4,2.3c-0.1,0.1-0.1,0.2-0.2,0.3c-0.5,0.8-0.9,1.6-1.4,2.4c-0.1,0.2-0.2,0.4-0.3,0.6c-0.3,0.6-0.6,1.2-0.9,1.8
			c-0.1,0.3-0.3,0.6-0.4,0.8c-0.1,0.2-0.2,0.4-0.3,0.6c-0.3,0.6-0.5,1.2-0.8,1.8c0,0,0,0,0,0.1c-0.1,0.3-0.3,0.7-0.4,1
			c-0.2,0.4-0.3,0.8-0.5,1.2c-0.1,0.3-0.2,0.6-0.3,0.9c-0.2,0.7-0.5,1.4-0.7,2.1C39.1,85.5,39,85.7,39,86c-0.1,0.3-0.2,0.6-0.3,0.8
			c-0.3,0.9-0.5,1.8-0.7,2.7c-0.1,0.4-0.2,0.8-0.3,1.3c-0.1,0.4-0.2,0.9-0.3,1.3c-0.1,0.7-0.3,1.4-0.4,2.2c0,0.3-0.1,0.6-0.1,0.8
			c-0.1,0.9-0.2,1.7-0.3,2.6c0,0.1,0,0.1,0,0.2c-0.2,2-0.3,4-0.3,6.1c0,0.9,0,1.9,0.1,2.8v0.3c0,0.9,0.1,1.6,0.1,2.3v0.3l0.2,0.9
			c0.1,0.8,0.2,1.6,0.3,2.3l0.1,0.8c0.1,0.4,0.1,0.8,0.2,1.2l0.1,0.3c0.1,0.3,0.1,0.5,0.2,0.8c0.1,0.4,0.2,1,0.3,1.4l0.1,0.3
			c0.1,0.3,0.1,0.6,0.2,0.9l0.4,1.4c6.1,22.8,24.2,40.1,47.2,45.1l1.3,0.3l2.7,0.5c0.5,0.1,1,0.1,1.5,0.2h0.3c0.3,0,0.5,0.1,0.8,0.1
			c0.7,0.1,1.3,0.1,1.9,0.2l0.9,0.1h1.1c0.2,0,0.5,0,0.7,0c0.7,0,1.4,0.1,2,0.1l0,0c0.5,0,0.9,0,1.4,0c0.4,0,0.8,0,1.1,0
			c0.6,0,1.2-0.1,1.8-0.1c0.3,0,0.5,0,0.8-0.1c0.7-0.1,1.3-0.1,2-0.2c0.1,0,0.2,0,0.3,0c13.9-1.6,26.8-7.8,36.9-17.9
			c10.1-10.1,16.3-23,17.9-36.9h13c-3.7,38.2-36,68.2-75.2,68.2c-41.6,0-75.5-33.9-75.5-75.5C23.4,64.7,53.4,32.4,91.6,28.8z
			 M101.5,281.1c-0.9,1.3-1.8,2.5-2.6,3.6c0,0,0,0,0,0.1c0,0,0,0-0.1-0.1c-0.8-1.1-1.7-2.4-2.7-3.7c-15.7-21.7-46.6-64.3-62.6-115.1
			c16.4,17.3,39.7,28.2,65.4,28.2s48.8-10.8,65.3-28C148.1,216.8,117.2,259.4,101.5,281.1z"/>
		<g>
			<path class="st0" d="M98.9,138.9C79.6,138.9,64,123.2,64,104s15.6-35,34.9-35s34.9,15.7,34.9,34.9S118.1,138.9,98.9,138.9z
				 M98.9,83.6c-11.2,0-20.3,9.1-20.3,20.3s9.1,20.3,20.3,20.3s20.3-9.1,20.3-20.3S110.1,83.6,98.9,83.6z"/>
		</g>
		<g class="st1">
			<path class="st0" d="M289.5,59c-4.3,0-8.1,0.9-11.3,2.6c-3.2,1.8-5.7,4.2-7.7,7.2s-3.5,6.6-4.4,10.6s-1.4,8.3-1.4,12.7
				c0,4.6,0.5,9,1.4,13.1s2.4,7.7,4.5,10.7c2,3,4.6,5.4,7.8,7.2c3.2,1.8,7,2.6,11.4,2.6c2,0,3.8-0.2,5.4-0.5s3.2-0.8,4.6-1.5
				s2.8-1.6,4.2-2.7c1.4-1.1,2.8-2.5,4.3-4c2-2.1,3.6-3.6,4.7-4.7c1.2-1,2.7-1.6,4.6-1.6c2.3,0,4.4,0.8,6.2,2.5
				c1.8,1.7,2.7,3.6,2.7,5.9c0,3.5-1.7,7.1-5.2,10.6c-2.9,3.1-7.1,5.8-12.5,8.3c-5.5,2.4-12.2,3.7-20.1,3.7c-8.1,0-15-1.4-20.7-4.1
				c-5.7-2.7-10.2-6.4-13.6-10.9c-3.4-4.6-5.9-9.8-7.5-15.7c-1.5-5.9-2.3-11.9-2.3-18.2c0-6.6,0.9-12.9,2.6-18.9
				c1.8-6,4.5-11.3,8.2-15.9c3.7-4.6,8.5-8.3,14.2-11c5.8-2.7,12.7-4.1,20.8-4.1c3.5,0,6.8,0.3,9.9,1s5.9,1.6,8.5,2.6
				c2.6,1.1,4.9,2.4,6.9,3.8c2,1.4,3.8,2.9,5.2,4.5c1.4,1.5,2.6,3.1,3.6,4.8c0.9,1.7,1.4,3.4,1.4,5.2c0,2.4-0.8,4.5-2.4,6.2
				s-3.8,2.5-6.4,2.5c-2.4,0-4.3-0.5-5.5-1.6s-2.6-2.5-4.1-4.2c-2.9-3.2-5.7-5.4-8.3-6.8C296.7,59.6,293.4,59,289.5,59z"/>
		</g>
		<g class="st1">
			<path class="st0" d="M374.4,67.4c2.1,0,3.7,0.3,4.9,0.9c1.2,0.6,2.1,1.4,2.6,2.3c0.6,0.9,0.9,1.9,1.1,2.8c0.1,1,0.2,1.9,0.2,2.7
				c0,0.8-0.1,1.7-0.2,2.6s-0.5,1.8-1,2.6c-0.5,0.8-1.3,1.5-2.3,2.2c-1,0.6-2.4,1.1-4.1,1.4c-1.8,0.4-3.6,0.7-5.4,1.1s-3.7,1-5.8,2
				c-2.9,1.4-4.7,3.7-5.4,6.8c-0.7,3.1-1.1,6.8-1.1,11.1v26.4c0,2.8-0.7,4.8-2.2,6.1c-1.4,1.3-3.8,1.9-7.1,1.9c-6.2,0-9.2-2.7-9.2-8
				V76.2c0-2,0.7-3.7,2-5.2s3.7-2.2,7.1-2.2c2.6,0,4.7,0.5,6.4,1.4c1.6,0.9,2.4,2.5,2.4,4.9v3c1.8-2.9,4.1-5.4,6.9-7.5
				C367.2,68.4,370.5,67.4,374.4,67.4z"/>
		</g>
		<g class="st1">
			<path class="st0" d="M413.7,135.3l-23.9-53.6c-0.6-1.4-1-2.4-1.1-3.3c-0.1-0.8-0.1-1.5-0.1-2.2c0-2.4,0.9-4.2,2.8-5.6
				s4.4-2,7.5-2c2.7,0,4.7,0.5,6,1.6c1.3,1,2.3,2.5,3.1,4.3l15.6,39.5L440,74.7c0.9-2.1,2-3.6,3.2-4.5s3-1.4,5.4-1.4
				c3.2,0,5.6,0.7,7.2,2.2s2.4,3.3,2.4,5.5c0,0.7-0.1,1.6-0.2,2.5s-0.4,1.9-0.9,2.9l-35.3,78.8c-1,2.3-2.3,4.2-3.9,5.6
				c-1.6,1.4-3.5,2-5.9,2c-3,0-5.3-0.8-6.8-2.4c-1.6-1.6-2.4-3.3-2.4-5.2c0-1.1,0.2-2.2,0.7-3.5c0.5-1.2,0.9-2.3,1.4-3.2
				L413.7,135.3z"/>
			<path class="st0" d="M469.5,76.6c0-2.4,0.8-4.3,2.3-5.8s4-2.3,7.5-2.3c2.3,0,4.3,0.5,6.2,1.4c1.9,0.9,2.8,2.8,2.8,5.6v2.6
				c0.7-1.1,1.7-2.3,2.9-3.5c1.2-1.3,2.7-2.4,4.4-3.5c1.7-1.1,3.7-2,5.8-2.6c2.2-0.7,4.6-1,7.3-1c4.9,0,9.2,0.9,12.9,2.8
				s6.8,4.4,9.3,7.7c2.5,3.3,4.3,7.2,5.6,11.7c1.2,4.5,1.8,9.4,1.8,14.8s-0.7,10.4-2.1,15c-1.4,4.6-3.4,8.5-6.1,11.8
				c-2.7,3.3-5.9,5.9-9.8,7.7c-3.9,1.9-8.3,2.8-13.3,2.8c-3.6,0-6.6-0.4-9-1.3c-2.4-0.9-4.4-1.8-5.9-2.9c-1.7-1.2-3.1-2.6-4.2-4.2
				v27.1c0,2.8-0.7,4.8-2.2,6c-1.4,1.2-3.8,1.8-7.2,1.8c-6,0-9-2.5-9-7.5L469.5,76.6L469.5,76.6z M519,104.7c0-3.1-0.3-5.9-1-8.5
				s-1.7-4.9-3-6.8s-2.9-3.5-4.9-4.5c-1.9-1.1-4.2-1.6-6.7-1.6c-2.6,0-4.9,0.5-6.8,1.6s-3.6,2.6-5,4.5s-2.4,4.2-3.1,6.8
				c-0.7,2.6-1,5.5-1,8.5c0,6.6,1.4,11.8,4.1,15.7c2.7,3.9,6.6,5.8,11.8,5.8c5.2,0,9-2,11.7-6.1C517.7,116.1,519,110.9,519,104.7z"
				/>
		</g>
		<g class="st1">
			<path class="st0" d="M574.6,141.7c-6,0-10.7-1.6-14.2-4.8s-5.3-8.2-5.3-15V83.5h-5.8c-1.5,0-2.7-0.8-3.4-2.4s-1.1-3.2-1.1-4.7
				c0-1.6,0.3-3.1,1-4.5s1.8-2.1,3.3-2.1h6v-13c0-1.6,0.4-3,1.2-4.1s1.8-2,3-2.7s2.5-1.2,3.9-1.5s2.8-0.5,4.1-0.5c2.4,0,4,0.6,5,1.7
				c0.9,1.1,1.4,2.6,1.4,4.3v15.7h11.1c1.8,0,3.1,0.7,3.8,2s1.1,2.9,1.1,4.7c0,4.8-1.7,7.2-5,7.2h-11v36.2c0,2.1,0.4,3.5,1.2,4.4
				s2,1.3,3.6,1.3c1.1,0,2-0.2,2.8-0.5s1.6-0.6,2.3-0.9l2.2-0.9c0.7-0.4,1.5-0.5,2.4-0.5c2.4,0,4,0.9,5,2.7c1,1.8,1.5,3.8,1.5,5.8
				c0,1.4-0.2,2.7-0.7,3.9c-0.5,1.1-1.4,2.1-2.6,2.9c-1.8,1.2-4.1,2.1-6.8,2.8C581.7,141.4,578.4,141.7,574.6,141.7z"/>
		</g>
		<g class="st1">
			<path class="st0" d="M672.4,104.1c0,5.7-0.9,10.8-2.6,15.5c-1.7,4.6-4.2,8.5-7.3,11.8c-3.2,3.3-7,5.8-11.4,7.6s-9.4,2.7-14.8,2.7
				c-5.6,0-10.6-0.9-15.1-2.6c-4.5-1.8-8.3-4.3-11.4-7.5c-3.1-3.3-5.5-7.2-7.2-11.8c-1.7-4.6-2.5-9.7-2.5-15.3
				c0-5.6,0.9-10.7,2.6-15.3c1.8-4.6,4.2-8.5,7.5-11.7c3.2-3.2,7-5.7,11.5-7.5c4.4-1.8,9.4-2.6,14.8-2.6c5.4,0,10.3,0.9,14.7,2.6
				c4.4,1.8,8.2,4.2,11.3,7.4c3.2,3.2,5.6,7,7.3,11.6C671.5,93.6,672.4,98.6,672.4,104.1z M653.5,104.7c0-6.7-1.5-11.9-4.5-15.7
				c-3-3.8-7.2-5.7-12.7-5.7c-5.2,0-9.4,1.9-12.4,5.6c-3,3.8-4.5,9-4.5,15.8s1.5,12,4.5,15.7s7.2,5.6,12.4,5.6
				c5.4,0,9.7-1.9,12.7-5.6C652,116.7,653.5,111.5,653.5,104.7z"/>
		</g>
		<g class="st1">
			<path class="st0" d="M289.5,198.3c-4.3,0-8.1,0.9-11.3,2.6c-3.2,1.8-5.7,4.2-7.7,7.2s-3.5,6.6-4.4,10.6s-1.4,8.3-1.4,12.7
				c0,4.6,0.5,9,1.4,13.1s2.4,7.7,4.5,10.7c2,3,4.6,5.4,7.8,7.2c3.2,1.8,7,2.6,11.4,2.6c2,0,3.8-0.2,5.4-0.5s3.2-0.8,4.6-1.5
				s2.8-1.6,4.2-2.7c1.4-1.1,2.8-2.5,4.3-4c2-2.1,3.6-3.6,4.7-4.7c1.2-1,2.7-1.6,4.6-1.6c2.3,0,4.4,0.8,6.2,2.5
				c1.8,1.7,2.7,3.6,2.7,5.9c0,3.5-1.7,7.1-5.2,10.6c-2.9,3.1-7.1,5.8-12.5,8.3c-5.5,2.4-12.2,3.7-20.1,3.7c-8.1,0-15-1.4-20.7-4.1
				s-10.2-6.4-13.6-10.9c-3.4-4.6-5.9-9.8-7.5-15.7c-1.5-5.9-2.3-11.9-2.3-18.2c0-6.6,0.9-12.9,2.6-18.9c1.8-6,4.5-11.3,8.2-15.9
				c3.7-4.6,8.5-8.3,14.2-11c5.8-2.7,12.7-4.1,20.8-4.1c3.5,0,6.8,0.3,9.9,1s5.9,1.6,8.5,2.6s4.9,2.4,6.9,3.8s3.8,2.9,5.2,4.5
				c1.4,1.5,2.6,3.1,3.6,4.8c0.9,1.7,1.4,3.4,1.4,5.2c0,2.4-0.8,4.5-2.4,6.2s-3.8,2.5-6.4,2.5c-2.4,0-4.3-0.5-5.5-1.6
				s-2.6-2.5-4.1-4.2c-2.9-3.2-5.7-5.4-8.3-6.8C296.7,199,293.4,198.3,289.5,198.3z"/>
			<path class="st0" d="M374.4,206.7c2.1,0,3.7,0.3,4.9,0.9c1.2,0.6,2.1,1.4,2.6,2.3c0.6,0.9,0.9,1.9,1.1,2.8c0.1,1,0.2,1.9,0.2,2.7
				s-0.1,1.7-0.2,2.6c-0.1,0.9-0.5,1.8-1,2.6s-1.3,1.5-2.3,2.2c-1,0.6-2.4,1.1-4.1,1.4c-1.8,0.4-3.6,0.7-5.4,1.1
				c-1.8,0.4-3.7,1-5.8,2c-2.9,1.4-4.7,3.7-5.4,6.8c-0.7,3.1-1.1,6.8-1.1,11.1v26.4c0,2.8-0.7,4.8-2.2,6.1c-1.4,1.3-3.8,1.9-7.1,1.9
				c-6.1,0-9.2-2.7-9.2-8v-56.3c0-2,0.7-3.7,2-5.2s3.7-2.2,7.1-2.2c2.6,0,4.7,0.5,6.4,1.4c1.6,0.9,2.4,2.5,2.4,4.9v3
				c1.8-2.9,4.1-5.4,6.9-7.5C367.2,207.8,370.5,206.7,374.4,206.7z"/>
			<path class="st0" d="M403.3,180.4c2.6,0,5,0.8,7.3,2.4c2.2,1.6,3.3,4.2,3.3,7.6c0,3.1-1,5.5-2.9,7.3s-4.5,2.7-7.7,2.7
				s-5.7-0.9-7.7-2.7c-1.9-1.8-2.9-4.2-2.9-7.3c0-2.9,1-5.3,2.9-7.2C397.6,181.4,400.1,180.4,403.3,180.4z M403.3,279.7
				c-6.4,0-9.6-2.4-9.6-7.3v-55.7c0-2.6,0.8-4.7,2.3-6.2s4-2.3,7.5-2.3c2.9,0,5.1,0.6,6.7,1.9c1.6,1.3,2.4,3.2,2.4,5.8v56.3
				c0,2.7-0.8,4.7-2.4,5.8C408.4,279.1,406.2,279.7,403.3,279.7z"/>
			<path class="st0" d="M431.5,191.4c0-2.4,0.7-4.2,2.2-5.6c1.5-1.4,3.7-2.1,6.7-2.1c2.6,0,4.9,0.5,6.8,1.4s2.9,2.8,2.9,5.7v26.7
				c0.7-1.1,1.7-2.3,2.9-3.5c1.2-1.3,2.7-2.4,4.4-3.5c1.7-1.1,3.7-2,5.8-2.6c2.2-0.7,4.6-1,7.3-1c4.9,0,9.2,0.9,13,2.8
				c3.8,1.9,6.9,4.4,9.4,7.7s4.4,7.2,5.7,11.7c1.3,4.5,1.9,9.4,1.9,14.8c0,5.4-0.7,10.4-2.2,15c-1.4,4.6-3.5,8.5-6.2,11.8
				s-5.9,5.9-9.8,7.7c-3.8,1.9-8.2,2.8-13,2.8c-3.8,0-6.9-0.5-9.4-1.4s-4.5-2-6-3.2c-1.8-1.4-3.3-2.9-4.3-4.6v0.8
				c0,2.8-0.7,4.7-2.2,5.6c-1.4,0.9-3.8,1.4-7.2,1.4c-6,0-9-2.5-9-7.5v-80.9H431.5z M481.4,244c0-3.1-0.3-5.9-1-8.5
				s-1.7-4.9-3.1-6.8c-1.4-1.9-3-3.5-5-4.5c-2-1.1-4.3-1.6-6.9-1.6s-4.9,0.5-6.8,1.6s-3.6,2.6-5,4.5s-2.4,4.2-3.1,6.8s-1,5.5-1,8.5
				c0,6.6,1.4,11.9,4.1,15.8s6.6,5.9,11.8,5.9c5.3,0,9.3-2.1,12-6.2C480.1,255.4,481.4,250.3,481.4,244z"/>
			<path class="st0" d="M571.5,258.3c0,7.6-2.8,13.3-8.3,17.1c-5.5,3.8-13,5.7-22.5,5.7c-5.4,0-10.3-0.6-14.6-1.9s-7.8-2.8-10.4-4.7
				c-1.2-0.8-2.1-1.7-2.6-2.8c-0.6-1-0.9-2.1-0.9-3.1c0-1.8,0.5-3.5,1.4-5.2c0.7-1.4,1.6-2.5,2.8-3.4c1.1-0.9,2.5-1.4,4-1.4
				c1.4,0,2.7,0.4,3.9,1.2c1.3,0.8,2.7,1.7,4.3,2.7s3.4,1.9,5.5,2.7c2.1,0.8,4.7,1.2,7.9,1.2c3.9,0,6.7-0.6,8.4-1.9s2.6-3,2.6-5.2
				c0-1.6-0.6-3.1-1.8-4.5s-3.7-2.4-7.5-3l-8.1-1.4c-3.3-0.5-6.4-1.3-9.2-2.4c-2.8-1-5.1-2.4-7.1-4.1c-2-1.7-3.5-3.7-4.6-6.1
				c-1.1-2.4-1.6-5.3-1.6-8.7c0-3.6,0.7-6.8,2.2-9.6c1.4-2.8,3.5-5.2,6.1-7.1c2.6-1.9,5.8-3.4,9.4-4.4c3.7-1,7.7-1.5,12-1.5
				c6.3,0,11.5,0.7,15.5,2.2s6.9,3,8.8,4.5c1.2,1,2,2,2.4,3c0.5,1,0.7,2,0.7,3c0,2.2-0.6,4-1.8,5.6c-0.7,0.9-1.5,1.6-2.2,2.1
				c-0.8,0.5-1.7,0.7-2.9,0.7c-1,0-2-0.2-3.1-0.6c-1-0.4-1.9-0.8-2.6-1.3c-2.4-1.4-4.8-2.6-7.1-3.5s-5.2-1.4-8.8-1.4
				c-3.5,0-6.1,0.6-7.8,1.8s-2.5,2.7-2.5,4.5c0,1.6,0.6,3.1,1.8,4.3s3.9,2.2,7.9,2.9l7.2,1.4c8.2,1.5,14.2,4,17.8,7.3
				C569.6,246.7,571.5,251.7,571.5,258.3z"/>
		</g>
	</g>
</g>
</svg>
